Coordinates
version=1
nRows=11
nColumns=42
inDegrees=yes

Units are S.I. units (second, meters, Newtons, ...)
If the header above contains a line with 'inDegrees', this indicates whether rotational values are in degrees (yes) or radians (no).

endheader
time	pelvis_tilt	pelvis_list	pelvis_rotation	pelvis_tx	pelvis_ty	pelvis_tz	hip_flexion_r	hip_adduction_r	hip_rotation_r	knee_angle_r	knee_adduction_r	knee_angle_r_beta	ankle_angle_r	subtalar_angle_r	mtp_angle_r	hip_flexion_l	hip_adduction_l	hip_rotation_l	knee_angle_l	knee_adduction_l	knee_angle_l_beta	ankle_angle_l	subtalar_angle_l	mtp_angle_l	lumbar_extension	lumbar_bending	lumbar_rotation	arm_flex_r	arm_add_r	arm_rot_r	elbow_flex_r	pro_sup_r	wrist_flex_r	wrist_dev_r	arm_flex_l	arm_add_l	arm_rot_l	elbow_flex_l	pro_sup_l	wrist_flex_l	wrist_dev_l
      0.78000000	      7.41214185	     -1.06490024	     -0.54529881	     -0.68062257	      0.93687561	     -0.11647773	     14.10072997	     -8.08606920	    -20.46552697	     34.28116028	      1.17570465	      0.59831912	      7.61198434	      7.83518345	     -9.48989404	      2.65036613	     -1.07074827	    -16.11146547	     32.65101112	     -2.87633307	      0.56986765	     18.86085397	     -0.58065125	     -9.48989404	    -20.21305394	      0.82950688	     -3.47040875	      6.28721865	    -13.37053634	      8.26986399	     44.28880129	     90.00000001	      0.00000000	      0.00000000	    -15.59736266	     -8.49891645	     -5.95848707	     52.89971296	     90.00000001	      0.00000000	      0.00000000
      0.79000000	      7.48077580	     -0.98285577	     -0.29562330	     -0.67766449	      0.93649933	     -0.11600801	     13.77135304	     -7.97571854	    -20.43650349	     34.21420227	      1.04255241	      0.59715048	      7.98651662	      7.62615487	     -9.47993364	      2.47490092	     -0.99571725	    -16.03662102	     32.77694463	     -3.05309636	      0.57206560	     18.93846573	     -0.56184911	     -9.47993364	    -20.18932146	      0.90197420	     -3.54392118	      6.11355575	    -13.48582235	      8.22592916	     44.17891199	     90.00000001	      0.00000000	      0.00000000	    -15.44006459	     -8.49621876	     -5.95522060	     52.95956074	     90.00000001	      0.00000000	      0.00000000
      0.80000000	      7.58027150	     -0.96608799	     -0.09697357	     -0.67471802	      0.93620781	     -0.11537997	     13.39555520	     -7.76072817	    -19.97474351	     34.12621403	      1.12904381	      0.59561480	      8.57598954	      6.51818245	     -9.37991390	      2.23674237	     -1.07140323	    -16.18918636	     32.86530186	     -3.19337392	      0.57360773	     19.27587931	     -0.03020989	     -9.37991390	    -20.21029013	      1.02662243	     -3.56967889	      6.06391591	    -13.48399112	      7.87587187	     43.92371628	     90.00000001	      0.00000000	      0.00000000	    -15.33408250	     -8.50449905	     -5.85895056	     53.08361934	     90.00000001	      0.00000000	      0.00000000
      0.81000000	      7.63133718	     -0.93142212	      0.08637777	     -0.67179900	      0.93589752	     -0.11476729	     13.13973799	     -7.64138072	    -19.91044600	     34.13998844	      1.04052819	      0.59585520	      8.86926136	      6.34737264	     -9.37120984	      2.06196006	     -1.05307646	    -16.14284849	     32.96093158	     -3.34970204	      0.57527678	     19.33930201	     -0.01734790	     -9.37120984	    -20.18210848	      1.13484444	     -3.58324256	      5.94405481	    -13.58964331	      7.82568174	     43.81493835	     90.00000001	      0.00000000	      0.00000000	    -15.19216799	     -8.47878220	     -5.84883159	     53.14520581	     90.00000001	      0.00000000	      0.00000000
      0.82000000	      7.73339506	     -0.93941784	      0.23350553	     -0.66889060	      0.93568865	     -0.11404261	     12.82212362	     -7.48044255	    -19.72489139	     34.14203753	      1.01920691	      0.59589097	      9.49855125	      5.92255670	     -9.35452641	      1.79826882	     -1.13395083	    -16.17046637	     33.02337499	     -3.42783773	      0.57636662	     19.52059621	      0.04501863	     -9.35452641	    -20.22853457	      1.28162193	     -3.55324435	      5.87940337	    -13.68732153	      7.71786397	     43.65197074	     90.00000001	      0.00000000	      0.00000000	    -15.03262722	     -8.44216480	     -5.82533998	     53.24097762	     90.00000001	      0.00000000	      0.00000000
      0.83000000	      7.67243669	     -0.88049923	      0.31476995	     -0.66600260	      0.93534001	     -0.11322704	     12.73895793	     -7.45370883	    -19.66744004	     34.18697105	      0.98252659	      0.59667521	      9.51549924	      5.90897472	     -9.35370391	      1.69429231	     -1.12434416	    -16.16247707	     33.05114881	     -3.46129732	      0.57685137	     19.52543344	      0.04990935	     -9.35370391	    -20.08656292	      1.32437904	     -3.56770141	      5.87012350	    -13.70568113	      7.70811478	     43.64021738	     90.00000001	      0.00000000	      0.00000000	    -15.00150991	     -8.43276845	     -5.82195175	     53.25805356	     90.00000001	      0.00000000	      0.00000000
      0.84000000	      7.76600723	     -0.95209015	      0.43938283	     -0.66328463	      0.93516187	     -0.11244789	     12.53837144	     -7.25560292	    -19.40752949	     34.40087069	      0.97081450	      0.60040846	      9.87680253	      5.65922192	     -9.34704273	      1.46115130	     -1.20063542	    -16.09762437	     33.09449784	     -3.67479923	      0.57760795	     19.64035059	      0.08870238	     -9.34704273	    -20.16334023	      1.54950374	     -3.52543985	      5.79645033	    -13.84139064	      7.62589771	     43.48221184	     90.00000001	      0.00000000	      0.00000000	    -14.82039809	     -8.34923228	     -5.79312918	     53.37590003	     90.00000001	      0.00000000	      0.00000000
      0.85000000	      7.69870421	     -0.89936832	      0.47499293	     -0.66048222	      0.93489053	     -0.11148280	     12.46702422	     -7.24416599	    -19.36052272	     34.44100464	      0.94947304	      0.60110893	      9.91027365	      5.63365367	     -9.34630211	      1.35944885	     -1.20669212	    -16.10134299	     33.11458298	     -3.68768732	      0.57795850	     19.65143400	      0.09246153	     -9.34630211	    -20.03135051	      1.59078252	     -3.52422501	      5.80618891	    -13.85576637	      7.61569335	     43.47359059	     90.00000001	      0.00000000	      0.00000000	    -14.78488724	     -8.34153087	     -5.79026449	     53.39715015	     90.00000001	      0.00000000	      0.00000000
      0.86000000	      7.79883700	     -0.96900706	      0.42115262	     -0.65784200	      0.93474819	     -0.11039336	     12.28424194	     -7.02718907	    -18.48417198	     34.69107092	      1.27707689	      0.60547341	     11.05094013	      4.41703427	     -9.31640679	      1.03423864	     -1.35687612	    -16.34523476	     33.06320614	     -3.80181907	      0.57706181	     20.15337762	      0.38496393	     -9.31640679	    -20.14698047	      1.74801048	     -3.31122586	      5.89548240	    -13.86309624	      7.29659228	     43.00559543	     90.00000001	      0.00000000	      0.00000000	    -14.63767256	     -8.28228545	     -5.73580341	     53.71664042	     90.00000001	      0.00000000	      0.00000000
      0.87000000	      7.75302482	     -1.00897462	      0.40024990	     -0.65528227	      0.93450334	     -0.10937265	     12.29170752	     -6.94323619	    -18.33371484	     34.93556813	      1.31866790	      0.60974069	     11.01700659	      4.24411518	     -9.30925420	      0.89692498	     -1.46949052	    -16.37850120	     33.04470854	     -3.81197848	      0.57673896	     20.17890576	      0.46877893	     -9.30925420	    -20.10412894	      1.90639206	     -3.24853247	      6.00780278	    -13.92508592	      7.20547041	     42.93332801	     90.00000001	      0.00000000	      0.00000000	    -14.55761667	     -8.19732106	     -5.69788968	     53.80391324	     90.00000001	      0.00000000	      0.00000000
      0.88000000	      7.63107050	     -1.02476332	      0.29566028	     -0.65278871	      0.93415926	     -0.10816907	     12.38179488	     -6.80993371	    -17.53159521	     35.15111065	      1.63694325	      0.61350262	     10.93331224	      2.60508918	     -9.22196486	      0.86393166	     -1.60664030	    -16.84486274	     33.05926560	     -3.96042558	      0.57699303	     20.53041409	      1.33670823	     -9.22196486	    -19.98186087	      1.98458157	     -3.13583384	      6.31212657	    -13.65546497	      6.40508380	     42.18675635	     90.00000001	      0.00000000	      0.00000000	    -14.59391278	     -8.20748858	     -5.55743136	     54.18270516	     90.00000001	      0.00000000	      0.00000000
